<?xml version="1.0" encoding="iso-8859-1"?>
<!-- Generator: Adobe Illustrator 19.0.0, SVG Export Plug-In . SVG Version: 6.00 Build 0)  -->
<svg version="1.1" id="Capa_1" xmlns="http://www.w3.org/2000/svg" xmlns:xlink="http://www.w3.org/1999/xlink" x="0px" y="0px"
	 viewBox="0 0 512 512" style="enable-background:new 0 0 512 512;" xml:space="preserve">
<path style="fill:#455A64;" d="M501.333,448H64V10.667C64,4.776,59.224,0,53.333,0S42.667,4.776,42.667,10.667V448h-32
	C4.776,448,0,452.776,0,458.667c0,5.891,4.776,10.667,10.667,10.667h32v32c0,5.891,4.776,10.667,10.667,10.667
	S64,507.224,64,501.333v-32h437.333c5.891,0,10.667-4.776,10.667-10.667C512,452.776,507.224,448,501.333,448z"/>
<g>
	<path style="fill:#607D8B;" d="M160,426.667c-5.891,0-10.667-4.776-10.667-10.667v-21.333c0-5.891,4.776-10.667,10.667-10.667
		c5.891,0,10.667,4.776,10.667,10.667V416C170.667,421.891,165.891,426.667,160,426.667z"/>
	<path style="fill:#607D8B;" d="M288,426.667c-5.891,0-10.667-4.776-10.667-10.667V266.667c0-5.891,4.776-10.667,10.667-10.667
		c5.891,0,10.667,4.776,10.667,10.667V416C298.667,421.891,293.891,426.667,288,426.667z"/>
	<path style="fill:#607D8B;" d="M437.333,426.667c-5.891,0-10.667-4.776-10.667-10.667V181.333c0-5.891,4.776-10.667,10.667-10.667
		S448,175.442,448,181.333V416C448,421.891,443.224,426.667,437.333,426.667z"/>
	<path style="fill:#607D8B;" d="M192,288c-5.891,0.011-10.675-4.757-10.686-10.648c-0.005-2.84,1.123-5.565,3.134-7.571l64-64
		c4.237-4.092,10.99-3.975,15.083,0.262c3.992,4.134,3.992,10.687,0,14.82l-64,64C197.535,286.866,194.827,287.994,192,288z"/>
	<path style="fill:#607D8B;" d="M330.667,170.667c-5.891,0.007-10.673-4.763-10.68-10.654c-0.004-3.571,1.778-6.907,4.749-8.888
		l64-42.667c4.901-3.27,11.525-1.947,14.795,2.955c3.27,4.901,1.947,11.525-2.955,14.795l-64,42.667
		C334.826,170.042,332.77,170.665,330.667,170.667z"/>
</g>
<circle style="fill:#FFC107;" cx="160" cy="309.333" r="53.333"/>
<circle style="fill:#4CAF50;" cx="288" cy="181.333" r="53.333"/>
<circle style="fill:#2196F3;" cx="437.333" cy="96" r="53.333"/>
<g>
</g>
<g>
</g>
<g>
</g>
<g>
</g>
<g>
</g>
<g>
</g>
<g>
</g>
<g>
</g>
<g>
</g>
<g>
</g>
<g>
</g>
<g>
</g>
<g>
</g>
<g>
</g>
<g>
</g>
</svg>
